<svg viewBox="0 0 800 450" xmlns="http://www.w3.org/2000/svg">
  <defs>
    <linearGradient id="bg3" x1="0%" y1="0%" x2="100%" y2="100%">
      <stop offset="0%" stop-color="#031a1a"/>
      <stop offset="100%" stop-color="#0a2e2e"/>
    </linearGradient>
    <linearGradient id="accent3" x1="0%" y1="0%" x2="100%" y2="0%">
      <stop offset="0%" stop-color="#2dd4bf"/>
      <stop offset="100%" stop-color="#06b6d4"/>
    </linearGradient>
    <radialGradient id="glow3" cx="50%" cy="50%" r="50%">
      <stop offset="0%" stop-color="#2dd4bf" stop-opacity="0.3"/>
      <stop offset="100%" stop-color="#2dd4bf" stop-opacity="0"/>
    </radialGradient>
  </defs>
  <rect width="800" height="450" fill="url(#bg3)"/>
  <circle cx="640" cy="200" r="220" fill="url(#glow3)"/>
  <!-- stacked chat bubbles -->
  <g transform="translate(500,100)">
    <rect x="0" y="0" width="160" height="42" rx="21" fill="rgba(45,212,191,0.2)" stroke="url(#accent3)" stroke-width="1.5"/>
    <rect x="20" y="60" width="200" height="42" rx="21" fill="rgba(6,182,212,0.25)" stroke="url(#accent3)" stroke-width="1.5"/>
    <rect x="0" y="120" width="180" height="42" rx="21" fill="rgba(45,212,191,0.2)" stroke="url(#accent3)" stroke-width="1.5"/>
    <rect x="20" y="180" width="160" height="42" rx="21" fill="rgba(6,182,212,0.25)" stroke="url(#accent3)" stroke-width="1.5"/>
  </g>
  <g font-family="Inter, -apple-system, sans-serif">
    <text x="60" y="80" font-size="14" font-weight="600" fill="#2dd4bf" letter-spacing="2">AI SAAS · CUSTOMER SERVICE</text>
    <text x="60" y="160" font-size="56" font-weight="800" fill="#fff">AIkefu</text>
    <text x="60" y="200" font-size="20" fill="#cbd5e1">企业智能客服 · RAG 知识库 · 转人工 SLA</text>
    <text x="60" y="230" font-size="16" fill="#94a3b8">Multi-channel · Quality Inspection · SOP</text>
  </g>
  <g stroke="rgba(45,212,191,0.4)" stroke-width="1" fill="none">
    <path d="M20,20 L40,20 M20,20 L20,40"/>
    <path d="M780,20 L760,20 M780,20 L780,40"/>
    <path d="M20,430 L40,430 M20,430 L20,410"/>
    <path d="M780,430 L760,430 M780,430 L780,410"/>
  </g>
</svg>
