<svg viewBox="0 0 800 450" xmlns="http://www.w3.org/2000/svg">
  <defs>
    <linearGradient id="bg9" x1="0%" y1="0%" x2="100%" y2="100%">
      <stop offset="0%" stop-color="#0f0f12"/>
      <stop offset="100%" stop-color="#1c1c22"/>
    </linearGradient>
    <linearGradient id="accent9" x1="0%" y1="0%" x2="100%" y2="0%">
      <stop offset="0%" stop-color="#94a3b8"/>
      <stop offset="100%" stop-color="#cbd5e1"/>
    </linearGradient>
    <radialGradient id="glow9" cx="50%" cy="50%" r="50%">
      <stop offset="0%" stop-color="#94a3b8" stop-opacity="0.25"/>
      <stop offset="100%" stop-color="#94a3b8" stop-opacity="0"/>
    </radialGradient>
  </defs>
  <rect width="800" height="450" fill="url(#bg9)"/>
  <circle cx="640" cy="200" r="220" fill="url(#glow9)"/>
  <!-- lab flask -->
  <g transform="translate(540,90)">
    <path d="M75,20 L75,80 L25,180 A10,10 0 0,0 35,200 L165,200 A10,10 0 0,0 175,180 L125,80 L125,20 Z" fill="rgba(148,163,184,0.15)" stroke="url(#accent9)" stroke-width="2"/>
    <line x1="70" y1="20" x2="130" y2="20" stroke="url(#accent9)" stroke-width="2"/>
    <path d="M40,160 Q100,140 160,160 L160,180 A10,10 0 0,1 150,200 L50,200 A10,10 0 0,1 40,180 Z" fill="url(#accent9)" opacity="0.6"/>
    <circle cx="80" cy="150" r="3" fill="#fff" opacity="0.7"/>
    <circle cx="115" cy="170" r="2" fill="#fff" opacity="0.5"/>
    <circle cx="100" cy="160" r="2" fill="#fff" opacity="0.6"/>
  </g>
  <g font-family="Inter, -apple-system, sans-serif">
    <text x="60" y="80" font-size="14" font-weight="600" fill="#94a3b8" letter-spacing="2">SANDBOX · EXPERIMENT</text>
    <text x="60" y="160" font-size="56" font-weight="800" fill="#e2e8f0">aisclab</text>
    <text x="60" y="200" font-size="20" fill="#94a3b8">AI 实验沙盒 · 早期原型仓库</text>
    <text x="60" y="230" font-size="16" fill="#64748b">Playground · Early-Stage Prototypes</text>
  </g>
  <g stroke="rgba(148,163,184,0.3)" stroke-width="1" fill="none">
    <path d="M20,20 L40,20 M20,20 L20,40"/>
    <path d="M780,20 L760,20 M780,20 L780,40"/>
    <path d="M20,430 L40,430 M20,430 L20,410"/>
    <path d="M780,430 L760,430 M780,430 L780,410"/>
  </g>
</svg>
