<svg viewBox="0 0 800 450" xmlns="http://www.w3.org/2000/svg">
  <defs>
    <linearGradient id="bg8" x1="0%" y1="0%" x2="100%" y2="100%">
      <stop offset="0%" stop-color="#1a0a1f"/>
      <stop offset="100%" stop-color="#2e0a35"/>
    </linearGradient>
    <linearGradient id="accent8" x1="0%" y1="0%" x2="100%" y2="0%">
      <stop offset="0%" stop-color="#c084fc"/>
      <stop offset="100%" stop-color="#f472b6"/>
    </linearGradient>
    <radialGradient id="glow8" cx="50%" cy="50%" r="50%">
      <stop offset="0%" stop-color="#c084fc" stop-opacity="0.3"/>
      <stop offset="100%" stop-color="#c084fc" stop-opacity="0"/>
    </radialGradient>
  </defs>
  <rect width="800" height="450" fill="url(#bg8)"/>
  <circle cx="640" cy="200" r="220" fill="url(#glow8)"/>
  <!-- mystical bagua/8 trigrams circle -->
  <g transform="translate(540,100)">
    <circle cx="100" cy="125" r="100" fill="none" stroke="url(#accent8)" stroke-width="2" opacity="0.5"/>
    <circle cx="100" cy="125" r="60" fill="none" stroke="url(#accent8)" stroke-width="2" opacity="0.7"/>
    <!-- yin yang mini -->
    <path d="M100,75 A25,25 0 0,1 100,125 A25,25 0 0,1 100,75 Z" fill="url(#accent8)"/>
    <path d="M100,75 A25,25 0 0,0 100,125 A25,25 0 0,0 100,75 Z" fill="rgba(255,255,255,0.2)"/>
    <circle cx="100" cy="100" r="6" fill="rgba(255,255,255,0.4)"/>
    <circle cx="100" cy="138" r="6" fill="url(#accent8)"/>
    <!-- 8 trigram dots -->
    <g fill="#c084fc">
      <circle cx="100" cy="35" r="4"/><circle cx="155" cy="62" r="4"/><circle cx="180" cy="125" r="4"/>
      <circle cx="155" cy="188" r="4"/><circle cx="100" cy="215" r="4"/><circle cx="45" cy="188" r="4"/>
      <circle cx="20" cy="125" r="4"/><circle cx="45" cy="62" r="4"/>
    </g>
  </g>
  <g font-family="Inter, -apple-system, sans-serif">
    <text x="60" y="80" font-size="14" font-weight="600" fill="#c084fc" letter-spacing="2">AI APP · LIFESTYLE</text>
    <text x="60" y="160" font-size="56" font-weight="800" fill="#fff">LifeChart</text>
    <text x="60" y="200" font-size="20" fill="#cbd5e1">智能算命 App · 八字 · 紫微 · 塔罗</text>
    <text x="60" y="230" font-size="16" fill="#94a3b8">Destiny Reading · iOS & Android</text>
  </g>
  <g stroke="rgba(192,132,252,0.4)" stroke-width="1" fill="none">
    <path d="M20,20 L40,20 M20,20 L20,40"/>
    <path d="M780,20 L760,20 M780,20 L780,40"/>
    <path d="M20,430 L40,430 M20,430 L20,410"/>
    <path d="M780,430 L760,430 M780,430 L780,410"/>
  </g>
</svg>
