<svg viewBox="0 0 800 450" xmlns="http://www.w3.org/2000/svg">
  <defs>
    <linearGradient id="bg2" x1="0%" y1="0%" x2="100%" y2="100%">
      <stop offset="0%" stop-color="#04111a"/>
      <stop offset="100%" stop-color="#0a2435"/>
    </linearGradient>
    <linearGradient id="accent2" x1="0%" y1="0%" x2="100%" y2="0%">
      <stop offset="0%" stop-color="#22d3ee"/>
      <stop offset="100%" stop-color="#34d399"/>
    </linearGradient>
    <radialGradient id="glow2" cx="50%" cy="50%" r="50%">
      <stop offset="0%" stop-color="#22d3ee" stop-opacity="0.3"/>
      <stop offset="100%" stop-color="#22d3ee" stop-opacity="0"/>
    </radialGradient>
  </defs>
  <rect width="800" height="450" fill="url(#bg2)"/>
  <circle cx="640" cy="200" r="220" fill="url(#glow2)"/>
  <!-- doc scan lines -->
  <g transform="translate(480,90)">
    <rect x="0" y="0" width="180" height="240" rx="8" fill="none" stroke="url(#accent2)" stroke-width="2" stroke-dasharray="6 4"/>
    <line x1="-10" y1="40" x2="190" y2="40" stroke="#22d3ee" stroke-width="2" opacity="0.8"/>
    <line x1="-10" y1="80" x2="190" y2="80" stroke="#22d3ee" stroke-width="2" opacity="0.6"/>
    <line x1="-10" y1="120" x2="190" y2="120" stroke="#22d3ee" stroke-width="2" opacity="0.8"/>
    <line x1="-10" y1="160" x2="190" y2="160" stroke="#22d3ee" stroke-width="2" opacity="0.5"/>
    <line x1="-10" y1="200" x2="190" y2="200" stroke="#22d3ee" stroke-width="2" opacity="0.7"/>
  </g>
  <g font-family="Inter, -apple-system, sans-serif">
    <text x="60" y="80" font-size="14" font-weight="600" fill="#22d3ee" letter-spacing="2">AI TOOL · OCR ENGINE</text>
    <text x="60" y="160" font-size="56" font-weight="800" fill="#fff">VibeCoding OCR</text>
    <text x="60" y="200" font-size="20" fill="#cbd5e1">8 行业场景 · 全格式输入 · VLM-First 融合</text>
    <text x="60" y="230" font-size="16" fill="#94a3b8">Packaging · Finance · Pharma · Contract · ID...</text>
  </g>
  <g stroke="rgba(34,211,238,0.4)" stroke-width="1" fill="none">
    <path d="M20,20 L40,20 M20,20 L20,40"/>
    <path d="M780,20 L760,20 M780,20 L780,40"/>
    <path d="M20,430 L40,430 M20,430 L20,410"/>
    <path d="M780,430 L760,430 M780,430 L780,410"/>
  </g>
</svg>
